<mxfile host="app.diagrams.net" modified="2023-12-25T20:57:09.939Z" agent="Mozilla/5.0 (Windows NT 10.0; Win64; x64) AppleWebKit/537.36 (KHTML, like Gecko) Chrome/119.0.0.0 Safari/537.36 OPR/105.0.0.0 (Edition Yx GX)" etag="6VGdzqSc6X7tZBtZ67G1" version="22.1.11" type="device">
  <diagram name="Страница — 1" id="aZUMiGWRyo1IdksI_4Ck">
    <mxGraphModel dx="2074" dy="743" grid="1" gridSize="10" guides="1" tooltips="1" connect="1" arrows="1" fold="1" page="1" pageScale="1" pageWidth="827" pageHeight="1169" math="0" shadow="0">
      <root>
        <mxCell id="0" />
        <mxCell id="1" parent="0" />
        <mxCell id="F5C45PRY6BdZxU0JxXsj-38" value="" style="rounded=0;whiteSpace=wrap;html=1;" vertex="1" parent="1">
          <mxGeometry x="-120" y="40" width="930" height="590" as="geometry" />
        </mxCell>
        <mxCell id="dPFGMzU0dyTywq7ht33G-1" value="Movie " style="swimlane;fontStyle=0;childLayout=stackLayout;horizontal=1;startSize=26;fillColor=none;horizontalStack=0;resizeParent=1;resizeParentMax=0;resizeLast=0;collapsible=1;marginBottom=0;whiteSpace=wrap;html=1;" parent="1" vertex="1">
          <mxGeometry x="610" y="50" width="140" height="110" as="geometry" />
        </mxCell>
        <mxCell id="dPFGMzU0dyTywq7ht33G-2" value="- id: Int" style="text;strokeColor=none;fillColor=none;align=left;verticalAlign=top;spacingLeft=4;spacingRight=4;overflow=hidden;rotatable=0;points=[[0,0.5],[1,0.5]];portConstraint=eastwest;whiteSpace=wrap;html=1;" parent="dPFGMzU0dyTywq7ht33G-1" vertex="1">
          <mxGeometry y="26" width="140" height="26" as="geometry" />
        </mxCell>
        <mxCell id="dPFGMzU0dyTywq7ht33G-3" value="+ title: String" style="text;strokeColor=none;fillColor=none;align=left;verticalAlign=top;spacingLeft=4;spacingRight=4;overflow=hidden;rotatable=0;points=[[0,0.5],[1,0.5]];portConstraint=eastwest;whiteSpace=wrap;html=1;" parent="dPFGMzU0dyTywq7ht33G-1" vertex="1">
          <mxGeometry y="52" width="140" height="26" as="geometry" />
        </mxCell>
        <mxCell id="dPFGMzU0dyTywq7ht33G-4" value="+ description: String" style="text;strokeColor=none;fillColor=none;align=left;verticalAlign=top;spacingLeft=4;spacingRight=4;overflow=hidden;rotatable=0;points=[[0,0.5],[1,0.5]];portConstraint=eastwest;whiteSpace=wrap;html=1;" parent="dPFGMzU0dyTywq7ht33G-1" vertex="1">
          <mxGeometry y="78" width="140" height="32" as="geometry" />
        </mxCell>
        <mxCell id="dPFGMzU0dyTywq7ht33G-5" value="Showtime" style="swimlane;fontStyle=0;childLayout=stackLayout;horizontal=1;startSize=26;fillColor=none;horizontalStack=0;resizeParent=1;resizeParentMax=0;resizeLast=0;collapsible=1;marginBottom=0;whiteSpace=wrap;html=1;" parent="1" vertex="1">
          <mxGeometry x="200" y="80" width="160" height="78" as="geometry" />
        </mxCell>
        <mxCell id="dPFGMzU0dyTywq7ht33G-6" value="+ movieId: Int" style="text;strokeColor=none;fillColor=none;align=left;verticalAlign=top;spacingLeft=4;spacingRight=4;overflow=hidden;rotatable=0;points=[[0,0.5],[1,0.5]];portConstraint=eastwest;whiteSpace=wrap;html=1;" parent="dPFGMzU0dyTywq7ht33G-5" vertex="1">
          <mxGeometry y="26" width="160" height="26" as="geometry" />
        </mxCell>
        <mxCell id="dPFGMzU0dyTywq7ht33G-7" value="+ startTime: String" style="text;strokeColor=none;fillColor=none;align=left;verticalAlign=top;spacingLeft=4;spacingRight=4;overflow=hidden;rotatable=0;points=[[0,0.5],[1,0.5]];portConstraint=eastwest;whiteSpace=wrap;html=1;" parent="dPFGMzU0dyTywq7ht33G-5" vertex="1">
          <mxGeometry y="52" width="160" height="26" as="geometry" />
        </mxCell>
        <mxCell id="dPFGMzU0dyTywq7ht33G-9" value="Ticket" style="swimlane;fontStyle=0;childLayout=stackLayout;horizontal=1;startSize=26;fillColor=none;horizontalStack=0;resizeParent=1;resizeParentMax=0;resizeLast=0;collapsible=1;marginBottom=0;whiteSpace=wrap;html=1;" parent="1" vertex="1">
          <mxGeometry x="610" y="400" width="140" height="140" as="geometry">
            <mxRectangle x="490" y="170" width="70" height="30" as="alternateBounds" />
          </mxGeometry>
        </mxCell>
        <mxCell id="dPFGMzU0dyTywq7ht33G-10" value="+ showtimeId: Int" style="text;strokeColor=none;fillColor=none;align=left;verticalAlign=top;spacingLeft=4;spacingRight=4;overflow=hidden;rotatable=0;points=[[0,0.5],[1,0.5]];portConstraint=eastwest;whiteSpace=wrap;html=1;" parent="dPFGMzU0dyTywq7ht33G-9" vertex="1">
          <mxGeometry y="26" width="140" height="26" as="geometry" />
        </mxCell>
        <mxCell id="dPFGMzU0dyTywq7ht33G-11" value="+ seat Number: Int" style="text;strokeColor=none;fillColor=none;align=left;verticalAlign=top;spacingLeft=4;spacingRight=4;overflow=hidden;rotatable=0;points=[[0,0.5],[1,0.5]];portConstraint=eastwest;whiteSpace=wrap;html=1;" parent="dPFGMzU0dyTywq7ht33G-9" vertex="1">
          <mxGeometry y="52" width="140" height="26" as="geometry" />
        </mxCell>
        <mxCell id="dPFGMzU0dyTywq7ht33G-12" value="- isSold: Boolean&lt;br&gt;&lt;br&gt;- isRefunded: Boolean&lt;br&gt;" style="text;strokeColor=none;fillColor=none;align=left;verticalAlign=top;spacingLeft=4;spacingRight=4;overflow=hidden;rotatable=0;points=[[0,0.5],[1,0.5]];portConstraint=eastwest;whiteSpace=wrap;html=1;" parent="dPFGMzU0dyTywq7ht33G-9" vertex="1">
          <mxGeometry y="78" width="140" height="62" as="geometry" />
        </mxCell>
        <mxCell id="dPFGMzU0dyTywq7ht33G-13" value="CinemaHall" style="swimlane;fontStyle=0;childLayout=stackLayout;horizontal=1;startSize=26;fillColor=none;horizontalStack=0;resizeParent=1;resizeParentMax=0;resizeLast=0;collapsible=1;marginBottom=0;whiteSpace=wrap;html=1;" parent="1" vertex="1">
          <mxGeometry x="610" y="200" width="140" height="120" as="geometry" />
        </mxCell>
        <mxCell id="dPFGMzU0dyTywq7ht33G-14" value="+ rows: Int" style="text;strokeColor=none;fillColor=none;align=left;verticalAlign=top;spacingLeft=4;spacingRight=4;overflow=hidden;rotatable=0;points=[[0,0.5],[1,0.5]];portConstraint=eastwest;whiteSpace=wrap;html=1;" parent="dPFGMzU0dyTywq7ht33G-13" vertex="1">
          <mxGeometry y="26" width="140" height="26" as="geometry" />
        </mxCell>
        <mxCell id="dPFGMzU0dyTywq7ht33G-15" value="+ seatsPerRow: Int" style="text;strokeColor=none;fillColor=none;align=left;verticalAlign=top;spacingLeft=4;spacingRight=4;overflow=hidden;rotatable=0;points=[[0,0.5],[1,0.5]];portConstraint=eastwest;whiteSpace=wrap;html=1;" parent="dPFGMzU0dyTywq7ht33G-13" vertex="1">
          <mxGeometry y="52" width="140" height="26" as="geometry" />
        </mxCell>
        <mxCell id="dPFGMzU0dyTywq7ht33G-16" value="+ seats: Array&amp;lt;Array&amp;lt;Ticket?&amp;gt;&amp;gt;" style="text;strokeColor=none;fillColor=none;align=left;verticalAlign=top;spacingLeft=4;spacingRight=4;overflow=hidden;rotatable=0;points=[[0,0.5],[1,0.5]];portConstraint=eastwest;whiteSpace=wrap;html=1;" parent="dPFGMzU0dyTywq7ht33G-13" vertex="1">
          <mxGeometry y="78" width="140" height="42" as="geometry" />
        </mxCell>
        <mxCell id="dPFGMzU0dyTywq7ht33G-17" value="CinemaManager" style="swimlane;fontStyle=0;childLayout=stackLayout;horizontal=1;startSize=26;fillColor=none;horizontalStack=0;resizeParent=1;resizeParentMax=0;resizeLast=0;collapsible=1;marginBottom=0;whiteSpace=wrap;html=1;" parent="1" vertex="1">
          <mxGeometry x="200" y="200" width="160" height="160" as="geometry" />
        </mxCell>
        <mxCell id="dPFGMzU0dyTywq7ht33G-18" value="- movies: MutableList&amp;lt;Movie&amp;gt;" style="text;strokeColor=none;fillColor=none;align=left;verticalAlign=top;spacingLeft=4;spacingRight=4;overflow=hidden;rotatable=0;points=[[0,0.5],[1,0.5]];portConstraint=eastwest;whiteSpace=wrap;html=1;" parent="dPFGMzU0dyTywq7ht33G-17" vertex="1">
          <mxGeometry y="26" width="160" height="44" as="geometry" />
        </mxCell>
        <mxCell id="dPFGMzU0dyTywq7ht33G-19" value="- showtimes: MutableList&amp;lt;Showtime&amp;gt;" style="text;strokeColor=none;fillColor=none;align=left;verticalAlign=top;spacingLeft=4;spacingRight=4;overflow=hidden;rotatable=0;points=[[0,0.5],[1,0.5]];portConstraint=eastwest;whiteSpace=wrap;html=1;" parent="dPFGMzU0dyTywq7ht33G-17" vertex="1">
          <mxGeometry y="70" width="160" height="50" as="geometry" />
        </mxCell>
        <mxCell id="dPFGMzU0dyTywq7ht33G-20" value="- tickets: MutableList&amp;lt;Ticket&amp;gt;" style="text;strokeColor=none;fillColor=none;align=left;verticalAlign=top;spacingLeft=4;spacingRight=4;overflow=hidden;rotatable=0;points=[[0,0.5],[1,0.5]];portConstraint=eastwest;whiteSpace=wrap;html=1;" parent="dPFGMzU0dyTywq7ht33G-17" vertex="1">
          <mxGeometry y="120" width="160" height="40" as="geometry" />
        </mxCell>
        <mxCell id="F5C45PRY6BdZxU0JxXsj-2" value="" style="endArrow=classicThin;endSize=12;dashed=1;html=1;rounded=0;exitX=0.5;exitY=0;exitDx=0;exitDy=0;entryX=0.494;entryY=1.03;entryDx=0;entryDy=0;entryPerimeter=0;endFill=1;" edge="1" parent="1" source="dPFGMzU0dyTywq7ht33G-9" target="dPFGMzU0dyTywq7ht33G-16">
          <mxGeometry width="160" relative="1" as="geometry">
            <mxPoint x="630" y="360" as="sourcePoint" />
            <mxPoint x="790" y="360" as="targetPoint" />
          </mxGeometry>
        </mxCell>
        <mxCell id="F5C45PRY6BdZxU0JxXsj-9" value="" style="endArrow=classic;endSize=12;dashed=1;html=1;rounded=0;entryX=0;entryY=0.5;entryDx=0;entryDy=0;endFill=1;exitX=1.013;exitY=0.05;exitDx=0;exitDy=0;exitPerimeter=0;" edge="1" parent="1" source="dPFGMzU0dyTywq7ht33G-18" target="dPFGMzU0dyTywq7ht33G-4">
          <mxGeometry width="160" relative="1" as="geometry">
            <mxPoint x="360" y="220.5" as="sourcePoint" />
            <mxPoint x="610" y="220" as="targetPoint" />
          </mxGeometry>
        </mxCell>
        <mxCell id="F5C45PRY6BdZxU0JxXsj-10" value="Может менять описание фильма" style="text;align=center;fontStyle=1;verticalAlign=middle;spacingLeft=3;spacingRight=3;strokeColor=none;rotatable=0;points=[[0,0.5],[1,0.5]];portConstraint=eastwest;html=1;" vertex="1" parent="1">
          <mxGeometry x="460" y="210" width="80" height="26" as="geometry" />
        </mxCell>
        <mxCell id="F5C45PRY6BdZxU0JxXsj-12" value="" style="endArrow=classic;endSize=12;dashed=1;html=1;rounded=0;entryX=0.509;entryY=1.154;entryDx=0;entryDy=0;endFill=1;entryPerimeter=0;" edge="1" parent="1" target="dPFGMzU0dyTywq7ht33G-7">
          <mxGeometry width="160" relative="1" as="geometry">
            <mxPoint x="280" y="200" as="sourcePoint" />
            <mxPoint x="408" y="150" as="targetPoint" />
          </mxGeometry>
        </mxCell>
        <mxCell id="F5C45PRY6BdZxU0JxXsj-13" value="&lt;font style=&quot;font-size: 12px;&quot;&gt;Может менять расписание&lt;/font&gt;" style="text;align=center;fontStyle=1;verticalAlign=middle;spacingLeft=3;spacingRight=3;strokeColor=none;rotatable=0;points=[[0,0.5],[1,0.5]];portConstraint=eastwest;html=1;" vertex="1" parent="1">
          <mxGeometry x="160" y="170" width="80" height="26" as="geometry" />
        </mxCell>
        <mxCell id="F5C45PRY6BdZxU0JxXsj-14" value="" style="endArrow=classic;endSize=12;dashed=1;html=1;rounded=0;entryX=-0.015;entryY=-0.065;entryDx=0;entryDy=0;endFill=1;exitX=0.513;exitY=1.034;exitDx=0;exitDy=0;exitPerimeter=0;entryPerimeter=0;" edge="1" parent="1" source="dPFGMzU0dyTywq7ht33G-20" target="dPFGMzU0dyTywq7ht33G-12">
          <mxGeometry width="160" relative="1" as="geometry">
            <mxPoint x="252" y="494" as="sourcePoint" />
            <mxPoint x="500" y="410" as="targetPoint" />
          </mxGeometry>
        </mxCell>
        <mxCell id="F5C45PRY6BdZxU0JxXsj-15" value="&lt;font style=&quot;font-size: 12px;&quot;&gt;Фиксирует продажу билета&lt;/font&gt;" style="text;align=center;fontStyle=1;verticalAlign=middle;spacingLeft=3;spacingRight=3;strokeColor=none;rotatable=0;points=[[0,0.5],[1,0.5]];portConstraint=eastwest;html=1;" vertex="1" parent="1">
          <mxGeometry x="440" y="370" width="90" height="36" as="geometry" />
        </mxCell>
        <mxCell id="F5C45PRY6BdZxU0JxXsj-16" value="UserData" style="swimlane;fontStyle=0;childLayout=stackLayout;horizontal=1;startSize=26;fillColor=none;horizontalStack=0;resizeParent=1;resizeParentMax=0;resizeLast=0;collapsible=1;marginBottom=0;whiteSpace=wrap;html=1;" vertex="1" parent="1">
          <mxGeometry x="-80" y="200" width="160" height="100" as="geometry" />
        </mxCell>
        <mxCell id="F5C45PRY6BdZxU0JxXsj-17" value="- username: String" style="text;strokeColor=none;fillColor=none;align=left;verticalAlign=top;spacingLeft=4;spacingRight=4;overflow=hidden;rotatable=0;points=[[0,0.5],[1,0.5]];portConstraint=eastwest;whiteSpace=wrap;html=1;" vertex="1" parent="F5C45PRY6BdZxU0JxXsj-16">
          <mxGeometry y="26" width="160" height="44" as="geometry" />
        </mxCell>
        <mxCell id="F5C45PRY6BdZxU0JxXsj-18" value="- password: String" style="text;strokeColor=none;fillColor=none;align=left;verticalAlign=top;spacingLeft=4;spacingRight=4;overflow=hidden;rotatable=0;points=[[0,0.5],[1,0.5]];portConstraint=eastwest;whiteSpace=wrap;html=1;" vertex="1" parent="F5C45PRY6BdZxU0JxXsj-16">
          <mxGeometry y="70" width="160" height="30" as="geometry" />
        </mxCell>
        <mxCell id="F5C45PRY6BdZxU0JxXsj-20" value="" style="endArrow=classic;endSize=12;dashed=1;html=1;rounded=0;entryX=1.008;entryY=0.353;entryDx=0;entryDy=0;endFill=1;exitX=-0.015;exitY=0.337;exitDx=0;exitDy=0;exitPerimeter=0;entryPerimeter=0;" edge="1" parent="1" source="dPFGMzU0dyTywq7ht33G-18" target="F5C45PRY6BdZxU0JxXsj-17">
          <mxGeometry width="160" relative="1" as="geometry">
            <mxPoint x="160" y="270" as="sourcePoint" />
            <mxPoint x="188" y="340" as="targetPoint" />
          </mxGeometry>
        </mxCell>
        <mxCell id="F5C45PRY6BdZxU0JxXsj-21" value="Authenticator" style="swimlane;fontStyle=0;childLayout=stackLayout;horizontal=1;startSize=26;fillColor=none;horizontalStack=0;resizeParent=1;resizeParentMax=0;resizeLast=0;collapsible=1;marginBottom=0;whiteSpace=wrap;html=1;" vertex="1" parent="1">
          <mxGeometry x="-80" y="380" width="160" height="70" as="geometry" />
        </mxCell>
        <mxCell id="F5C45PRY6BdZxU0JxXsj-22" value="- users: MutableMap&amp;lt;String" style="text;strokeColor=none;fillColor=none;align=left;verticalAlign=top;spacingLeft=4;spacingRight=4;overflow=hidden;rotatable=0;points=[[0,0.5],[1,0.5]];portConstraint=eastwest;whiteSpace=wrap;html=1;" vertex="1" parent="F5C45PRY6BdZxU0JxXsj-21">
          <mxGeometry y="26" width="160" height="44" as="geometry" />
        </mxCell>
        <mxCell id="F5C45PRY6BdZxU0JxXsj-26" value="AuthUI" style="swimlane;fontStyle=0;childLayout=stackLayout;horizontal=1;startSize=26;fillColor=none;horizontalStack=0;resizeParent=1;resizeParentMax=0;resizeLast=0;collapsible=1;marginBottom=0;whiteSpace=wrap;html=1;" vertex="1" parent="1">
          <mxGeometry x="-80" y="510" width="160" height="70" as="geometry" />
        </mxCell>
        <mxCell id="F5C45PRY6BdZxU0JxXsj-27" value="- authenticator: Authenticator" style="text;strokeColor=none;fillColor=none;align=left;verticalAlign=top;spacingLeft=4;spacingRight=4;overflow=hidden;rotatable=0;points=[[0,0.5],[1,0.5]];portConstraint=eastwest;whiteSpace=wrap;html=1;" vertex="1" parent="F5C45PRY6BdZxU0JxXsj-26">
          <mxGeometry y="26" width="160" height="44" as="geometry" />
        </mxCell>
        <mxCell id="F5C45PRY6BdZxU0JxXsj-30" value="" style="endArrow=classic;endSize=12;dashed=1;html=1;rounded=0;entryX=0.5;entryY=0;entryDx=0;entryDy=0;endFill=1;exitX=0.49;exitY=1.023;exitDx=0;exitDy=0;exitPerimeter=0;" edge="1" parent="1" source="F5C45PRY6BdZxU0JxXsj-22" target="F5C45PRY6BdZxU0JxXsj-26">
          <mxGeometry width="160" relative="1" as="geometry">
            <mxPoint x="10" y="470" as="sourcePoint" />
            <mxPoint x="110" y="481" as="targetPoint" />
          </mxGeometry>
        </mxCell>
        <mxCell id="F5C45PRY6BdZxU0JxXsj-31" value="" style="endArrow=classic;endSize=12;dashed=1;html=1;rounded=0;entryX=0.5;entryY=0;entryDx=0;entryDy=0;endFill=1;exitX=0.499;exitY=1.064;exitDx=0;exitDy=0;exitPerimeter=0;" edge="1" parent="1" source="F5C45PRY6BdZxU0JxXsj-18" target="F5C45PRY6BdZxU0JxXsj-21">
          <mxGeometry width="160" relative="1" as="geometry">
            <mxPoint x="177" y="350" as="sourcePoint" />
            <mxPoint x="60" y="351" as="targetPoint" />
          </mxGeometry>
        </mxCell>
        <mxCell id="F5C45PRY6BdZxU0JxXsj-32" value="CinemaUI" style="swimlane;fontStyle=0;childLayout=stackLayout;horizontal=1;startSize=26;fillColor=none;horizontalStack=0;resizeParent=1;resizeParentMax=0;resizeLast=0;collapsible=1;marginBottom=0;whiteSpace=wrap;html=1;" vertex="1" parent="1">
          <mxGeometry x="200" y="440" width="160" height="70" as="geometry" />
        </mxCell>
        <mxCell id="F5C45PRY6BdZxU0JxXsj-33" value="- cinemaManager: CinemaManager" style="text;strokeColor=none;fillColor=none;align=left;verticalAlign=top;spacingLeft=4;spacingRight=4;overflow=hidden;rotatable=0;points=[[0,0.5],[1,0.5]];portConstraint=eastwest;whiteSpace=wrap;html=1;" vertex="1" parent="F5C45PRY6BdZxU0JxXsj-32">
          <mxGeometry y="26" width="160" height="44" as="geometry" />
        </mxCell>
        <mxCell id="F5C45PRY6BdZxU0JxXsj-36" value="" style="endArrow=classic;endSize=12;dashed=1;html=1;rounded=0;entryX=0.5;entryY=0;entryDx=0;entryDy=0;endFill=1;exitX=0.517;exitY=1.039;exitDx=0;exitDy=0;exitPerimeter=0;" edge="1" parent="1" source="dPFGMzU0dyTywq7ht33G-20" target="F5C45PRY6BdZxU0JxXsj-32">
          <mxGeometry width="160" relative="1" as="geometry">
            <mxPoint x="292" y="371" as="sourcePoint" />
            <mxPoint x="608" y="484" as="targetPoint" />
          </mxGeometry>
        </mxCell>
        <mxCell id="F5C45PRY6BdZxU0JxXsj-37" value="&lt;span style=&quot;color: rgb(0, 0, 0); font-family: Helvetica; font-size: 12px; font-style: normal; font-variant-ligatures: normal; font-variant-caps: normal; font-weight: 700; letter-spacing: normal; orphans: 2; text-align: center; text-indent: 0px; text-transform: none; widows: 2; word-spacing: 0px; -webkit-text-stroke-width: 0px; background-color: rgb(251, 251, 251); text-decoration-thickness: initial; text-decoration-style: initial; text-decoration-color: initial; float: none; display: inline !important;&quot;&gt;Может использовать функции приложения&lt;/span&gt;" style="text;whiteSpace=wrap;html=1;" vertex="1" parent="1">
          <mxGeometry x="125" y="380" width="150" height="40" as="geometry" />
        </mxCell>
      </root>
    </mxGraphModel>
  </diagram>
</mxfile>
